<?xml version="1.0" encoding="UTF-8"?>
<svg width="258px" height="217px" viewBox="0 0 258 217" version="1.1" xmlns="http://www.w3.org/2000/svg" xmlns:xlink="http://www.w3.org/1999/xlink">
    <!-- Generator: Sketch 48.2 (47327) - http://www.bohemiancoding.com/sketch -->
    <title>Teapot</title>
    <desc>Created with Sketch.</desc>
    <defs></defs>
    <g id="Logo" stroke="none" stroke-width="1" fill="none" fill-rule="evenodd" transform="translate(-20.000000, -42.000000)">
        <g id="Teapot" transform="translate(25.000000, 45.000000)">
            <path d="M21.3317262,152.444488 C0.0904700593,94.5539162 -4.86181398,58.6209013 6.47487408,44.6454429 C17.8115621,30.6699844 43.9109063,35.8749718 84.7729065,60.2604051" id="Handle" stroke="#82F2FC" stroke-width="11"></path>
            <path d="M220.263096,175 C214.070336,137.251561 213.392228,111.965499 218.228774,99.1418167 C223.065319,86.318134 233.655728,71.633209 250,55.0870417 L223.064008,47 C215.346647,53.0465906 208.731858,56.6540008 203.21964,57.8222305 C197.707422,58.9904603 187.300875,58.9904603 172,57.8222305 L220.263096,175 Z" id="Spout" stroke="#1294EB" stroke-width="5" fill="#1294EB" stroke-linejoin="round"></path>
            <circle id="Lid" stroke="#82F2FC" stroke-width="5" fill="#82F2FC" cx="115.5" cy="17.5" r="17.5"></circle>
            <path d="M115,211 C177.408177,211 228,201.592581 228,139.474583 C228,77.3565863 177.408177,27 115,27 C52.5918233,27 2,77.3565863 2,139.474583 C2,201.592581 52.5918233,211 115,211 Z" id="Pot" stroke="#1294EB" stroke-width="5" fill="#1294EB"></path>
            <path d="M44.0302463,111.769087 L44.0302463,118.526572 L48.0788866,118.526572 C48.6257645,118.526572 48.8991994,118.771026 48.8991994,119.259942 L48.317042,124.472111 C48.2464771,125.013411 47.9730422,125.284057 47.4967292,125.284057 L44.0302463,125.284057 L44.0302463,147.206596 C44.0302463,147.416132 43.9464518,147.603838 43.7788602,147.76972 C43.6112686,147.935602 43.4216283,148.018542 43.2099336,148.018542 L33.6837211,148.018542 C33.4720265,148.018542 33.2823862,147.939967 33.1147946,147.782816 C32.9472029,147.625664 32.8634084,147.433593 32.8634084,147.206596 L32.8634084,125.284057 L29.7673893,125.284057 C29.5909771,125.284057 29.4189778,125.209848 29.2513862,125.061427 C29.0837945,124.913006 29,124.73403 29,124.524495 L29,119.312326 C29,118.753565 29.2557939,118.491649 29.7673893,118.526572 L32.8634084,118.526572 L32.8634084,112.659608 C32.8634084,112.223076 33.1368432,111.978621 33.6837211,111.926238 L43.2099336,111.009524 C43.4216283,110.974602 43.6112686,111.035715 43.7788602,111.192867 C43.9464518,111.350019 44.0302463,111.54209 44.0302463,111.769087 Z M76.5091268,145.818431 C73.4571953,147.826479 69.620287,148.830488 64.9982868,148.830488 C61.9463553,148.830488 59.234058,148.18443 56.8613136,146.892294 C54.4885692,145.600159 52.6362686,143.779847 51.3043563,141.431304 C49.972444,139.08276 49.3064979,136.380666 49.3064979,133.324941 C49.3064979,130.269215 49.9636236,127.562756 51.2778946,125.205482 C52.5921657,122.848208 54.4312356,121.019165 56.7951594,119.718299 C59.1590832,118.417433 61.8581497,117.76701 64.89244,117.76701 C67.6621119,117.76701 70.0921538,118.277745 72.1826387,119.29923 C74.2731235,120.320715 75.9005019,121.879112 77.0648226,123.974467 C78.2291432,126.069822 78.8112948,128.671515 78.8112948,131.779624 C78.8112948,132.879685 78.7495515,133.971 78.6260629,135.0536 C78.5731393,135.542516 78.2908839,135.78697 77.7792885,135.78697 L60.8967231,135.78697 C60.8967231,136.956876 61.3156958,137.904137 62.1536539,138.628781 C62.9916119,139.353424 64.0897616,139.71574 65.4481357,139.71574 C68.3942198,139.71574 71.1638502,139.122066 73.7571099,137.934698 C73.8629572,137.882314 73.968803,137.856122 74.0746503,137.856122 C74.286345,137.856122 74.4451136,138.022002 74.5509609,138.353767 L76.8795906,145.006485 C76.985438,145.303327 76.8619513,145.573972 76.5091268,145.818431 Z M60.8437997,130.286691 L68.5441547,130.286691 C68.5441547,129.099324 68.2089765,128.152063 67.5386101,127.444881 C66.8682436,126.737699 65.9597343,126.384113 64.8130548,126.384113 C63.6310929,126.384113 62.674071,126.737699 61.9419603,127.444881 C61.2098495,128.152063 60.8437997,129.099324 60.8437997,130.286691 Z M84.4050868,120.831451 C87.6510717,118.78848 91.5938258,117.76701 96.2334673,117.76701 C100.89075,117.76701 104.326327,119.028569 106.5403,121.551725 C108.754273,124.074881 109.861243,127.999247 109.861243,133.324941 L109.861243,147.206596 C109.861243,147.416132 109.781859,147.603838 109.623088,147.76972 C109.464317,147.935602 109.270267,148.018542 109.040931,148.018542 L102.213812,148.018542 C102.002117,148.018542 101.808067,147.935602 101.631654,147.76972 C101.455242,147.603838 101.367037,147.416132 101.367037,147.206596 L100.970112,145.766047 C99.0119361,147.809018 95.9071276,148.830488 91.655593,148.830488 C89.6268524,148.830488 87.8318849,148.428884 86.2706367,147.625665 C84.7093886,146.822446 83.500983,145.700575 82.6453837,144.260018 C81.7897844,142.819462 81.3619912,141.191221 81.3619912,139.375247 C81.3619912,137.506889 81.7853741,135.883014 82.6321528,134.503572 C83.4789315,133.12413 84.6785166,132.063372 86.2309442,131.321268 C87.7833718,130.579163 89.5915699,130.208116 91.655593,130.208116 C93.2609442,130.208116 94.7030925,130.465666 95.9820811,130.980774 C97.2610697,131.495882 98.1651688,132.189958 98.6944055,133.063022 L98.6944055,130.810527 C98.6944055,129.658082 98.3151249,128.732648 97.5565523,128.034196 C96.7979798,127.335745 95.7924452,126.986524 94.5399184,126.986524 C93.3579565,126.986524 92.2553966,127.108751 91.2322057,127.353209 C90.2090148,127.597668 89.2034802,127.999271 88.2155718,128.558032 C88.074442,128.645339 87.9421348,128.688991 87.8186463,128.688991 C87.5540279,128.688991 87.3511569,128.549303 87.2100271,128.269923 L84.1140081,121.852931 C84.0610844,121.713241 84.034623,121.591013 84.034623,121.486246 C84.034623,121.241788 84.1581097,121.023525 84.4050868,120.831451 Z M98.6944055,139.532398 L98.6944055,138.353767 C97.7947032,137.463241 96.9038348,137.017985 96.0217737,137.017985 C95.1573538,137.017985 94.5134588,137.192595 94.0900695,137.541821 C93.6666801,137.891047 93.4549886,138.362494 93.4549886,138.956178 C93.4549886,139.549862 93.6622699,140.016944 94.0768386,140.35744 C94.4914074,140.697935 95.1132511,140.86818 95.9423886,140.86818 C96.8773734,140.86818 97.7947032,140.422924 98.6944055,139.532398 Z M121.43538,119.312326 L122.229231,121.250519 C124.504949,118.893245 127.671501,117.714626 131.728982,117.714626 C134.410448,117.714626 136.814028,118.365049 138.939795,119.665915 C141.065563,120.966781 142.723813,122.795824 143.914595,125.153098 C145.105378,127.510372 145.70076,130.216831 145.70076,133.272557 C145.70076,136.345744 145.109788,139.052203 143.927826,141.392016 C142.745864,143.731829 141.074383,145.547775 138.913334,146.839911 C136.752284,148.132046 134.242858,148.778104 131.38498,148.778104 C128.721155,148.778104 126.524856,148.097124 124.796016,146.735144 L124.796016,157.238057 C124.796016,157.412669 124.707811,157.58728 124.531399,157.761893 C124.354987,157.936506 124.169757,158.01508 123.975703,157.997619 L114.423029,157.997619 C114.211334,157.997619 114.026104,157.919044 113.867333,157.761893 C113.708562,157.604741 113.629178,157.430131 113.629178,157.238057 L113.629178,119.312326 C113.629178,119.10279 113.708562,118.91945 113.867333,118.762298 C114.026104,118.605146 114.211334,118.526572 114.423029,118.526572 L120.562144,118.526572 C120.897327,118.509111 121.188403,118.771026 121.43538,119.312326 Z M129.003426,139.165713 C130.591136,139.165713 131.830414,138.633151 132.721296,137.568013 C133.612177,136.502874 134.057611,135.062339 134.057611,133.246365 C134.057611,132.006614 133.85033,130.906569 133.435761,129.946198 C133.021193,128.985827 132.439041,128.235003 131.689289,127.693703 C130.939537,127.152403 130.079541,126.881757 129.109273,126.881757 C128.139006,126.881757 127.256958,127.152403 126.463103,127.693703 C125.669248,128.235003 125.113558,128.950905 124.796016,129.841431 L124.796016,136.232231 C125.113558,137.105295 125.660428,137.812467 126.436641,138.353767 C127.212855,138.895067 128.068442,139.165713 129.003426,139.165713 Z M147.748684,133.324941 C147.748684,130.234292 148.41904,127.514737 149.759773,125.166194 C151.100506,122.817651 152.974858,120.997338 155.382885,119.705203 C157.790912,118.413068 160.556132,117.76701 163.678628,117.76701 C166.818766,117.76701 169.592806,118.413068 172.000833,119.705203 C174.40886,120.997338 176.278802,122.813285 177.610714,125.153098 C178.942626,127.492911 179.608572,130.19937 179.608572,133.272557 C179.608572,136.345744 178.942626,139.056568 177.610714,141.405112 C176.278802,143.753655 174.40886,145.578332 172.000833,146.879199 C169.592806,148.180065 166.818766,148.830488 163.678628,148.830488 C160.538491,148.830488 157.76445,148.18443 155.356423,146.892294 C152.948396,145.600159 151.078455,143.784212 149.746542,141.444399 C148.41463,139.104587 147.748684,136.398127 147.748684,133.324941 Z M167.568498,129.029485 C166.562949,127.964346 165.266338,127.431785 163.678628,127.431785 C162.637796,127.431785 161.707236,127.676239 160.886919,128.165155 C160.066602,128.654071 159.431527,129.343782 158.981676,130.234308 C158.531825,131.124834 158.306903,132.146304 158.306903,133.298749 C158.306903,134.451194 158.531825,135.472664 158.981676,136.36319 C159.431527,137.253715 160.066602,137.943426 160.886919,138.432342 C161.707236,138.921258 162.637796,139.165713 163.678628,139.165713 C164.71946,139.165713 165.650021,138.916893 166.470338,138.419246 C167.290655,137.921599 167.925729,137.223158 168.37558,136.323902 C168.825431,135.424646 169.050354,134.39881 169.050354,133.246365 C169.050354,131.517697 168.556407,130.112085 167.568498,129.029485 Z M196.131047,111.769087 L196.131047,118.526572 L200.179687,118.526572 C200.726565,118.526572 201,118.771026 201,119.259942 L200.417843,124.472111 C200.347278,125.013411 200.073843,125.284057 199.59753,125.284057 L196.131047,125.284057 L196.131047,147.206596 C196.131047,147.416132 196.047252,147.603838 195.879661,147.76972 C195.712069,147.935602 195.522429,148.018542 195.310734,148.018542 L185.784522,148.018542 C185.572827,148.018542 185.383187,147.939967 185.215595,147.782816 C185.048004,147.625664 184.964209,147.433593 184.964209,147.206596 L184.964209,125.284057 L181.86819,125.284057 C181.691778,125.284057 181.519778,125.209848 181.352187,125.061427 C181.184595,124.913006 181.100801,124.73403 181.100801,124.524495 L181.100801,119.312326 C181.100801,118.753565 181.356595,118.491649 181.86819,118.526572 L184.964209,118.526572 L184.964209,112.659608 C184.964209,112.223076 185.237644,111.978621 185.784522,111.926238 L195.310734,111.009524 C195.522429,110.974602 195.712069,111.035715 195.879661,111.192867 C196.047252,111.350019 196.131047,111.54209 196.131047,111.769087 Z" id="Text" fill="#82F2FC"></path>
        </g>
    </g>
</svg>